# xmcd
#
# Track frame offsets:
#	150
#	16490
#	34064
#	51551
#	77393
#	101680
#	115443
#	127826
#	143536
#	161195
#	185281
#	206612
#
# Disc length: 2956 seconds
#
# Revision: 2
# Processed by: cddbd v1.5.2PL0 Copyright (c) Steve Scherf et al.
# Submitted via: EasyCDDAExtractor 12.0.4.1
#
DISCID=9e0b8a0c
DTITLE=Cyndi Lauper - Memphis Blues
DYEAR=1900
DGENRE=Blues
TTITLE0=Just Your Fool
TTITLE1=Shattered Dreams
TTITLE2=Early In The Mornin'
TTITLE3=Romance In The Dark
TTITLE4=How Blue Can You Get?
TTITLE5=Down Don't Bother Me
TTITLE6=Don't Cry No More
TTITLE7=Rollin' And Tumblin'
TTITLE8=Down So Low
TTITLE9=Mother Earth
TTITLE10=Crossroads
TTITLE11=Wild Women Don't Have The Blues [Preorder bonus track]
EXTD=
EXTT0=
EXTT1=
EXTT2=
EXTT3=
EXTT4=
EXTT5=
EXTT6=
EXTT7=
EXTT8=
EXTT9=
EXTT10=
EXTT11=
PLAYORDER=
